<?xml version="1.0" encoding="UTF-8"?>
<svg id="Layer_1" xmlns="http://www.w3.org/2000/svg" version="1.1" viewBox="0 0 24 24">
  <!-- Generator: Adobe Illustrator 29.0.1, SVG Export Plug-In . SVG Version: 2.1.0 Build 192)  -->
  <path d="M18,13.8c-1.2,0-2.3.6-3,1.6l-5.3-2.5c0-.3.1-.6.1-.8s0-.6-.1-.8l5.3-2.5c.7.9,1.8,1.6,3,1.6,2.1,0,3.8-1.7,3.8-3.8s-1.7-3.8-3.8-3.8-3.8,1.7-3.8,3.8,0,.6,0,.8l-5.3,2.5c-.7-.9-1.8-1.5-3-1.5-2.1,0-3.8,1.7-3.8,3.8s1.7,3.8,3.8,3.8,2.3-.6,3-1.5l5.3,2.5c0,.3,0,.5,0,.8,0,2.1,1.7,3.8,3.8,3.8s3.8-1.7,3.8-3.8-1.7-3.8-3.8-3.8Z"/>
</svg>